<svg width="25.000000" height="22.916687" viewBox="0 0 25 22.9167" fill="none" xmlns="http://www.w3.org/2000/svg" xmlns:xlink="http://www.w3.org/1999/xlink">
	<desc>
			Created with Pixso.
	</desc>
	<defs/>
	<path id="Vector" d="M25 13.54C25 12.71 24.67 11.91 24.08 11.33C23.49 10.74 22.7 10.41 21.87 10.41L19.79 10.41L19.79 3.12C19.79 2.29 19.46 1.5 18.87 0.91C18.29 0.32 17.49 0 16.66 0L3.12 0C2.29 0 1.5 0.32 0.91 0.91C0.32 1.5 0 2.29 0 3.12L0 18.75L2.12 18.75C2.09 18.92 2.08 19.09 2.08 19.27C2.08 20.23 2.46 21.16 3.15 21.84C3.83 22.53 4.76 22.91 5.72 22.91C6.69 22.91 7.62 22.53 8.3 21.84C8.99 21.16 9.37 20.23 9.37 19.27C9.37 19.09 9.35 18.92 9.33 18.75L15.66 18.75C15.64 18.92 15.62 19.09 15.62 19.27C15.62 20.23 16 21.16 16.69 21.84C17.37 22.53 18.3 22.91 19.27 22.91C20.23 22.91 21.16 22.53 21.84 21.84C22.53 21.16 22.91 20.23 22.91 19.27C22.91 19.09 22.9 18.92 22.87 18.75L25 18.75L25 13.54ZM13.54 12.5L13.54 16.66L10.41 16.66L10.41 6.25L13.54 6.25L13.54 12.5ZM2.08 10.41L2.08 6.25L4.16 6.25L4.16 10.41L2.08 10.41ZM6.25 6.25L8.33 6.25L8.33 10.41L6.25 10.41L6.25 6.25ZM15.62 6.25L17.7 6.25L17.7 10.41L15.62 10.41L15.62 6.25ZM3.12 2.08L16.66 2.08C16.94 2.08 17.2 2.19 17.4 2.38C17.59 2.58 17.7 2.84 17.7 3.12L17.7 4.16L2.08 4.16L2.08 3.12C2.08 2.84 2.19 2.58 2.38 2.38C2.58 2.19 2.84 2.08 3.12 2.08ZM2.08 12.5L8.33 12.5L8.33 16.66L2.08 16.66L2.08 12.5ZM7.29 19.27C7.29 19.68 7.12 20.08 6.83 20.37C6.54 20.66 6.14 20.83 5.72 20.83C5.31 20.83 4.91 20.66 4.62 20.37C4.33 20.08 4.16 19.68 4.16 19.27C4.16 19.09 4.19 18.91 4.26 18.75L7.19 18.75C7.25 18.91 7.29 19.09 7.29 19.27ZM20.83 19.27C20.83 19.68 20.66 20.08 20.37 20.37C20.08 20.66 19.68 20.83 19.27 20.83C18.85 20.83 18.45 20.66 18.16 20.37C17.87 20.08 17.7 19.68 17.7 19.27C17.7 19.09 17.74 18.91 17.8 18.75L20.73 18.75C20.8 18.91 20.83 19.09 20.83 19.27ZM22.91 16.66L15.62 16.66L15.62 12.5L21.87 12.5C22.15 12.5 22.41 12.6 22.61 12.8C22.8 13 22.91 13.26 22.91 13.54L22.91 16.66Z" fill="#0BA42D" fill-opacity="1.000000" fill-rule="nonzero"/>
</svg>
