<svg width="110.086914" height="18.000000" viewBox="0 0 110.087 18" fill="none" xmlns="http://www.w3.org/2000/svg" xmlns:xlink="http://www.w3.org/1999/xlink">
	<desc>
			Created with Pixso.
	</desc>
	<defs>
		<clipPath id="clip22_6346">
			<rect id="fi-rr-angle-small-down" rx="-0.500000" width="17.000000" height="17.000000" transform="translate(0.500000 0.500000)" fill="white" fill-opacity="0"/>
		</clipPath>
		<linearGradient x1="310.411530" y1="0.000000" x2="310.411530" y2="225.930161" id="paint_linear_22_6349_0" gradientUnits="userSpaceOnUse">
			<stop stop-color="#FFFFFF"/>
			<stop offset="1.000000" stop-color="#F0F0F0"/>
		</linearGradient>
		<linearGradient x1="310.411530" y1="0.000000" x2="310.411530" y2="225.930161" id="paint_linear_22_6350_0" gradientUnits="userSpaceOnUse">
			<stop stop-color="#D02F44"/>
			<stop offset="1.000000" stop-color="#B12537"/>
		</linearGradient>
		<linearGradient x1="183.890686" y1="0.000000" x2="183.890686" y2="105.434074" id="paint_linear_22_6351_0" gradientUnits="userSpaceOnUse">
			<stop stop-color="#46467F"/>
			<stop offset="1.000000" stop-color="#3C3C6D"/>
		</linearGradient>
		<linearGradient x1="163.808258" y1="1.004166" x2="163.808258" y2="76.314217" id="paint_linear_22_6352_0" gradientUnits="userSpaceOnUse">
			<stop stop-color="#FFFFFF"/>
			<stop offset="1.000000" stop-color="#F0F0F0"/>
		</linearGradient>
	</defs>
	<rect id="fi-rr-angle-small-down" rx="-0.500000" width="17.000000" height="17.000000" transform="translate(0.500000 0.500000)" fill="#FFFFFF" fill-opacity="0"/>
	<rect id="fi-rr-angle-small-down" rx="-0.500000" width="17.000000" height="17.000000" transform="translate(0.500000 0.500000)" fill="#FFFFFF" fill-opacity="0"/>
	<g clip-path="url(#clip22_6346)">
		<path id="Vector" d="M14.03 6.15C13.96 6.08 13.87 6.03 13.78 5.99C13.69 5.95 13.59 5.93 13.49 5.93C13.4 5.93 13.3 5.95 13.21 5.99C13.11 6.03 13.03 6.08 12.96 6.15L9.53 9.59C9.46 9.66 9.37 9.71 9.28 9.75C9.19 9.79 9.09 9.81 8.99 9.81C8.9 9.81 8.8 9.79 8.71 9.75C8.61 9.71 8.53 9.66 8.46 9.59L5.03 6.15C4.96 6.08 4.87 6.03 4.78 5.99C4.69 5.95 4.59 5.93 4.49 5.93C4.4 5.93 4.3 5.95 4.21 5.99C4.11 6.03 4.03 6.08 3.96 6.15C3.82 6.29 3.74 6.48 3.74 6.68C3.74 6.88 3.82 7.07 3.96 7.21L7.4 10.65C7.83 11.07 8.4 11.31 8.99 11.31C9.59 11.31 10.16 11.07 10.58 10.65L14.03 7.21C14.17 7.07 14.25 6.88 14.25 6.68C14.25 6.48 14.17 6.29 14.03 6.15Z" fill="#FFFFFF" fill-opacity="1.000000" fill-rule="nonzero"/>
	</g>
	<path id="English" d="M60.61 4.29C60.61 4.78 60.19 5.18 59.67 5.18C59.16 5.18 58.73 4.78 58.73 4.29C58.73 3.81 59.16 3.41 59.67 3.41C60.19 3.41 60.61 3.81 60.61 4.29ZM36.56 14L30.11 14L30.11 3.81L36.5 3.81L36.5 5.14L31.65 5.14L31.65 8.24L36.16 8.24L36.16 9.56L31.65 9.56L31.65 12.67L36.56 12.67L36.56 14ZM55.44 3.81L56.92 3.81L56.92 14L55.44 14L55.44 3.81ZM73.23 7.55C72.17 7.55 71.4 8.24 71.4 9.46L71.4 14L69.91 14L69.91 3.81L71.38 3.81L71.38 7.6L71.47 7.6C71.83 6.78 72.55 6.26 73.73 6.26C75.31 6.26 76.35 7.23 76.35 9.14L76.35 14L74.86 14L74.86 9.32C74.86 8.2 74.25 7.55 73.23 7.55ZM41.7 7.55C40.67 7.55 39.92 8.24 39.92 9.46L39.92 14L38.43 14L38.43 6.36L39.86 6.36L39.86 7.6L39.96 7.6C40.31 6.79 41.06 6.26 42.21 6.26C43.77 6.26 44.81 7.25 44.81 9.14L44.81 14L43.32 14L43.32 9.32C43.32 8.21 42.71 7.55 41.7 7.55ZM53.45 14.16C53.45 16.13 51.94 17.02 50 17.02C48.17 17.02 47.16 16.22 46.75 15.29L48.03 14.76C48.29 15.2 48.78 15.82 50.01 15.82C51.14 15.82 51.97 15.3 51.97 14.1L51.97 12.6L51.87 12.6C51.6 13.09 51.06 13.88 49.66 13.88C47.85 13.88 46.47 12.58 46.47 10.15C46.47 7.72 47.82 6.26 49.67 6.26C51.09 6.26 51.62 7.12 51.88 7.6L51.99 7.6L51.99 6.36L53.45 6.36L53.45 14.16ZM65.24 6.26C66.89 6.26 67.82 7.04 68.13 8.22L66.78 8.46C66.61 7.95 66.18 7.44 65.26 7.44C64.41 7.44 63.78 7.86 63.78 8.44C63.78 8.96 64.14 9.24 64.98 9.44L66.19 9.72C67.59 10.04 68.28 10.71 68.28 11.79C68.28 13.17 67 14.15 65.16 14.15C63.44 14.15 62.32 13.39 62.07 12.04L63.51 11.82C63.69 12.57 64.26 12.95 65.15 12.95C66.12 12.95 66.76 12.49 66.76 11.9C66.76 11.42 66.41 11.09 65.68 10.93L64.38 10.65C62.95 10.33 62.3 9.61 62.3 8.52C62.3 7.17 63.52 6.26 65.24 6.26ZM60.41 14L58.92 14L58.92 6.36L60.41 6.36L60.41 14ZM47.97 10.13C47.97 11.63 48.66 12.65 49.99 12.65C51.27 12.65 51.98 11.7 51.98 10.13C51.98 8.58 51.28 7.52 49.99 7.52C48.64 7.52 47.97 8.66 47.97 10.13Z" fill="#FFFFFF" fill-opacity="1.000000" fill-rule="evenodd"/>
	<path id="Vector" d="M89 0L110.08 0L110.08 15.06L89 15.06L89 0Z" fill="url(#paint_linear_22_6349_0)" fill-opacity="1.000000" fill-rule="evenodd"/>
	<path id="Vector" d="M89 0L110.08 0L110.08 1L89 1L89 0ZM89 2L110.08 2L110.08 3.01L89 3.01L89 2ZM89 4.01L110.08 4.01L110.08 5.02L89 5.02L89 4.01ZM89 6.02L110.08 6.02L110.08 7.02L89 7.02L89 6.02ZM89 8.03L110.08 8.03L110.08 9.03L89 9.03L89 8.03ZM89 10.04L110.08 10.04L110.08 11.04L89 11.04L89 10.04ZM89 12.04L110.08 12.04L110.08 13.05L89 13.05L89 12.04ZM89 14.05L110.08 14.05L110.08 15.06L89 15.06L89 14.05Z" fill="url(#paint_linear_22_6350_0)" fill-opacity="1.000000" fill-rule="evenodd"/>
	<path id="Vector" d="M89 0L98.03 0L98.03 7.02L89 7.02L89 0Z" fill="url(#paint_linear_22_6351_0)" fill-opacity="1.000000" fill-rule="evenodd"/>
	<path id="Vector" d="M90.5 2C90.22 2 90 1.78 90 1.5C90 1.22 90.22 1 90.5 1C90.78 1 91 1.22 91 1.5C91 1.78 90.78 2 90.5 2ZM92.51 2C92.23 2 92.01 1.78 92.01 1.5C92.01 1.22 92.23 1 92.51 1C92.79 1 93.01 1.22 93.01 1.5C93.01 1.78 92.79 2 92.51 2ZM94.52 2C94.24 2 94.02 1.78 94.02 1.5C94.02 1.22 94.24 1 94.52 1C94.8 1 95.02 1.22 95.02 1.5C95.02 1.78 94.8 2 94.52 2ZM96.53 2C96.25 2 96.02 1.78 96.02 1.5C96.02 1.22 96.25 1 96.53 1C96.8 1 97.03 1.22 97.03 1.5C97.03 1.78 96.8 2 96.53 2ZM91.51 3.01C91.23 3.01 91 2.78 91 2.51C91 2.23 91.23 2 91.51 2C91.78 2 92.01 2.23 92.01 2.51C92.01 2.78 91.78 3.01 91.51 3.01ZM93.51 3.01C93.24 3.01 93.01 2.78 93.01 2.51C93.01 2.23 93.24 2 93.51 2C93.79 2 94.02 2.23 94.02 2.51C94.02 2.78 93.79 3.01 93.51 3.01ZM95.52 3.01C95.25 3.01 95.02 2.78 95.02 2.51C95.02 2.23 95.25 2 95.52 2C95.8 2 96.02 2.23 96.02 2.51C96.02 2.78 95.8 3.01 95.52 3.01ZM96.53 4.01C96.25 4.01 96.02 3.79 96.02 3.51C96.02 3.23 96.25 3.01 96.53 3.01C96.8 3.01 97.03 3.23 97.03 3.51C97.03 3.79 96.8 4.01 96.53 4.01ZM94.52 4.01C94.24 4.01 94.02 3.79 94.02 3.51C94.02 3.23 94.24 3.01 94.52 3.01C94.8 3.01 95.02 3.23 95.02 3.51C95.02 3.79 94.8 4.01 94.52 4.01ZM92.51 4.01C92.23 4.01 92.01 3.79 92.01 3.51C92.01 3.23 92.23 3.01 92.51 3.01C92.79 3.01 93.01 3.23 93.01 3.51C93.01 3.79 92.79 4.01 92.51 4.01ZM90.5 4.01C90.22 4.01 90 3.79 90 3.51C90 3.23 90.22 3.01 90.5 3.01C90.78 3.01 91 3.23 91 3.51C91 3.79 90.78 4.01 90.5 4.01ZM91.51 5.02C91.23 5.02 91 4.79 91 4.51C91 4.24 91.23 4.01 91.51 4.01C91.78 4.01 92.01 4.24 92.01 4.51C92.01 4.79 91.78 5.02 91.51 5.02ZM93.51 5.02C93.24 5.02 93.01 4.79 93.01 4.51C93.01 4.24 93.24 4.01 93.51 4.01C93.79 4.01 94.02 4.24 94.02 4.51C94.02 4.79 93.79 5.02 93.51 5.02ZM95.52 5.02C95.25 5.02 95.02 4.79 95.02 4.51C95.02 4.24 95.25 4.01 95.52 4.01C95.8 4.01 96.02 4.24 96.02 4.51C96.02 4.79 95.8 5.02 95.52 5.02ZM96.53 6.02C96.25 6.02 96.02 5.8 96.02 5.52C96.02 5.24 96.25 5.02 96.53 5.02C96.8 5.02 97.03 5.24 97.03 5.52C97.03 5.8 96.8 6.02 96.53 6.02ZM94.52 6.02C94.24 6.02 94.02 5.8 94.02 5.52C94.02 5.24 94.24 5.02 94.52 5.02C94.8 5.02 95.02 5.24 95.02 5.52C95.02 5.8 94.8 6.02 94.52 6.02ZM92.51 6.02C92.23 6.02 92.01 5.8 92.01 5.52C92.01 5.24 92.23 5.02 92.51 5.02C92.79 5.02 93.01 5.24 93.01 5.52C93.01 5.8 92.79 6.02 92.51 6.02ZM90.5 6.02C90.22 6.02 90 5.8 90 5.52C90 5.24 90.22 5.02 90.5 5.02C90.78 5.02 91 5.24 91 5.52C91 5.8 90.78 6.02 90.5 6.02Z" fill="url(#paint_linear_22_6352_0)" fill-opacity="1.000000" fill-rule="evenodd"/>
</svg>
