<svg width="23.973999" height="18.000000" viewBox="0 0 23.974 18" fill="none" xmlns="http://www.w3.org/2000/svg" xmlns:xlink="http://www.w3.org/1999/xlink">
	<desc>
			Created with Pixso.
	</desc>
	<defs/>
	<path id="Vector" d="M5.65 5L5.39 2.93C5.29 2.12 4.9 1.38 4.29 0.84C3.68 0.29 2.9 0 2.08 0L0 0L0 3L2.08 3C2.16 3 2.24 3.03 2.3 3.08C2.36 3.14 2.4 3.21 2.41 3.29L3.91 15.05C4 15.86 4.39 16.61 5 17.15C5.61 17.7 6.4 17.99 7.21 18L20.4 18L23.97 5L5.65 5ZM18.11 15L7.21 15C7.13 14.99 7.05 14.96 6.99 14.91C6.93 14.85 6.89 14.78 6.89 14.7L6.03 8L20.03 8L18.11 15Z" fill="#FFFFFF" fill-opacity="1.000000" fill-rule="nonzero"/>
</svg>
