<svg width="62.000000" height="62.000000" viewBox="0 0 62 62" fill="none" xmlns="http://www.w3.org/2000/svg" xmlns:xlink="http://www.w3.org/1999/xlink">
	<desc>
			Created with Pixso.
	</desc>
	<defs>
		<clipPath id="clip39_4091">
			<rect id="fi-bs-heart" rx="-0.500000" width="34.000000" height="34.000000" transform="translate(14.000000 14.000000)" fill="white" fill-opacity="0"/>
		</clipPath>
		<clipPath id="clip736_4444">
			<rect id="Favorites" rx="8.500000" width="59.000000" height="59.000000" transform="translate(1.500000 1.500000)" fill="white" fill-opacity="0"/>
		</clipPath>
	</defs>
	<rect id="Favorites" rx="8.500000" width="59.000000" height="59.000000" transform="translate(1.500000 1.500000)" fill="#FFFFFF" fill-opacity="1.000000"/>
	<g clip-path="url(#clip736_4444)">
		<rect id="fi-bs-heart" rx="-0.500000" width="34.000000" height="34.000000" transform="translate(14.000000 14.000000)" fill="#FFFFFF" fill-opacity="0"/>
		<g clip-path="url(#clip39_4091)">
			<path id="Vector" d="M31 47.71L29.73 46.82C28.07 45.64 13.5 35.05 13.5 25.38C13.4 22.67 14.38 20.03 16.23 18.04C18.07 16.06 20.63 14.88 23.34 14.77C24.83 14.79 26.31 15.15 27.64 15.84C28.97 16.52 30.12 17.51 31 18.72C31.87 17.51 33.02 16.52 34.35 15.84C35.68 15.15 37.16 14.79 38.65 14.77C41.36 14.88 43.92 16.06 45.76 18.04C47.61 20.03 48.59 22.67 48.5 25.38C48.5 35.05 33.92 45.64 32.26 46.82L31 47.71ZM23.34 19.15C21.79 19.26 20.35 19.97 19.32 21.14C18.3 22.31 17.78 23.83 17.87 25.38C17.87 31.09 26.42 38.81 31 42.31C35.57 38.81 44.12 31.09 44.12 25.38C44.21 23.83 43.69 22.31 42.67 21.14C41.64 19.97 40.2 19.26 38.65 19.15C37.1 19.26 35.66 19.97 34.64 21.14C33.61 22.31 33.09 23.83 33.18 25.38L28.81 25.38C28.9 23.83 28.38 22.31 27.35 21.14C26.33 19.97 24.89 19.26 23.34 19.15Z" fill="#0D2612" fill-opacity="1.000000" fill-rule="nonzero"/>
		</g>
	</g>
	<rect id="Favorites" rx="8.500000" width="59.000000" height="59.000000" transform="translate(1.500000 1.500000)" stroke="#0D2612" stroke-opacity="1.000000" stroke-width="3.000000"/>
</svg>
