<svg width="82.000000" height="17.000000" viewBox="0 0 82 17" fill="none" xmlns="http://www.w3.org/2000/svg" xmlns:xlink="http://www.w3.org/1999/xlink">
	<desc>
			Created with Pixso.
	</desc>
	<defs/>
	<rect id="Vector" rx="-0.500000" width="16.000004" height="16.000004" transform="translate(0.500000 0.500000)" fill="#FFFFFF" fill-opacity="0"/>
	<path id="Vector" d="M8.5 0C6.81 0 5.17 0.49 3.77 1.43C2.37 2.36 1.29 3.69 0.64 5.24C0 6.8 -0.17 8.5 0.16 10.15C0.49 11.8 1.3 13.32 2.48 14.51C3.67 15.69 5.19 16.5 6.84 16.83C8.49 17.16 10.19 16.99 11.75 16.35C13.3 15.7 14.63 14.62 15.56 13.22C16.5 11.82 17 10.18 17 8.5C16.99 6.24 16.1 4.08 14.5 2.49C12.91 0.89 10.75 0 8.5 0L8.5 0ZM14.83 7.79L12.36 7.79C12.2 5.94 11.65 4.15 10.74 2.54C11.84 2.95 12.8 3.66 13.52 4.59C14.24 5.51 14.7 6.62 14.83 7.79ZM6.86 9.91L10.13 9.91C9.86 11.4 9.3 12.81 8.5 14.09C7.69 12.81 7.13 11.4 6.86 9.91ZM6.76 7.79C6.96 6.05 7.55 4.38 8.5 2.9C9.44 4.38 10.03 6.05 10.23 7.79L6.76 7.79ZM6.25 2.54C5.34 4.15 4.79 5.94 4.63 7.79L2.16 7.79C2.29 6.62 2.75 5.51 3.47 4.59C4.19 3.66 5.15 2.95 6.25 2.54ZM2.28 9.91L4.7 9.91C4.94 11.51 5.46 13.04 6.25 14.45C5.26 14.08 4.39 13.47 3.7 12.68C3.01 11.89 2.52 10.94 2.28 9.91ZM10.74 14.45C11.53 13.04 12.05 11.51 12.29 9.91L14.71 9.91C14.47 10.94 13.98 11.89 13.29 12.68C12.6 13.47 11.73 14.08 10.74 14.45Z" fill="#FFFFFF" fill-opacity="1.000000" fill-rule="nonzero"/>
	<path id="Location" d="M65.14 4.29C65.14 4.78 64.71 5.18 64.2 5.18C63.68 5.18 63.26 4.78 63.26 4.29C63.26 3.81 63.68 3.41 64.2 3.41C64.71 3.41 65.14 3.81 65.14 4.29ZM32.27 14L26.11 14L26.11 3.81L27.65 3.81L27.65 12.67L32.27 12.67L32.27 14ZM60.24 6.36L61.81 6.36L61.81 7.55L60.24 7.55L60.24 11.75C60.24 12.61 60.68 12.77 61.16 12.77C61.4 12.77 61.58 12.73 61.68 12.71L61.95 13.94C61.77 14 61.46 14.09 60.99 14.09C59.81 14.12 58.75 13.45 58.76 12.06L58.76 7.55L57.64 7.55L57.64 6.36L58.76 6.36L58.76 4.53L60.24 4.53L60.24 6.36ZM40.67 10.21C40.67 12.57 39.26 14.15 37.11 14.15C34.96 14.15 33.55 12.57 33.55 10.21C33.55 7.84 34.96 6.26 37.11 6.26C39.26 6.26 40.67 7.84 40.67 10.21ZM48.68 11.58C48.51 13.07 47.35 14.15 45.54 14.15C43.33 14.15 41.98 12.52 41.98 10.21C41.98 7.88 43.37 6.26 45.53 6.26C47.26 6.26 48.52 7.28 48.68 8.82L47.23 8.82C47.07 8.11 46.5 7.51 45.55 7.51C44.31 7.51 43.48 8.54 43.48 10.18C43.48 11.84 44.29 12.89 45.55 12.89C46.4 12.89 47.04 12.41 47.23 11.58L48.68 11.58ZM54.76 12.95C54.47 13.52 53.76 14.16 52.5 14.16C51.05 14.16 49.92 13.34 49.92 11.84C49.92 10.1 51.4 9.73 52.84 9.56C54.22 9.4 54.78 9.4 54.78 8.86L54.78 8.83C54.78 7.97 54.28 7.46 53.32 7.46C52.33 7.46 51.77 7.98 51.55 8.53L50.15 8.21C50.65 6.82 51.92 6.26 53.3 6.26C54.52 6.26 56.27 6.7 56.27 8.92L56.27 14L54.81 14L54.81 12.95L54.76 12.95ZM73.71 10.21C73.71 12.57 72.3 14.15 70.15 14.15C68 14.15 66.59 12.57 66.59 10.21C66.59 7.84 68 6.26 70.15 6.26C72.3 6.26 73.71 7.84 73.71 10.21ZM78.63 7.55C77.6 7.55 76.85 8.24 76.85 9.46L76.85 14L75.37 14L75.37 6.36L76.79 6.36L76.79 7.6L76.89 7.6C77.24 6.79 77.99 6.26 79.14 6.26C80.7 6.26 81.74 7.25 81.74 9.14L81.74 14L80.25 14L80.25 9.32C80.25 8.21 79.64 7.55 78.63 7.55ZM64.94 14L63.45 14L63.45 6.36L64.94 6.36L64.94 14ZM35.05 10.21C35.05 11.67 35.71 12.9 37.12 12.9C38.51 12.9 39.17 11.67 39.17 10.21C39.17 8.75 38.51 7.5 37.12 7.5C35.71 7.5 35.05 8.75 35.05 10.21ZM68.09 10.21C68.09 11.67 68.75 12.9 70.16 12.9C71.56 12.9 72.21 11.67 72.21 10.21C72.21 8.75 71.56 7.5 70.16 7.5C68.75 7.5 68.09 8.75 68.09 10.21ZM51.37 11.86C51.37 12.59 51.98 12.97 52.82 12.97C54.06 12.97 54.78 12.15 54.78 11.24L54.78 10.26C54.57 10.47 53.42 10.6 52.94 10.66C52.08 10.78 51.37 11.06 51.37 11.86Z" fill="#FFFFFF" fill-opacity="1.000000" fill-rule="evenodd"/>
</svg>
