<svg width="158.996094" height="20.000000" viewBox="0 0 158.996 20" fill="none" xmlns="http://www.w3.org/2000/svg" xmlns:xlink="http://www.w3.org/1999/xlink">
	<desc>
			Created with Pixso.
	</desc>
	<defs>
		<clipPath id="clip736_4300">
			<rect id="fi-rs-star" rx="-0.500000" width="19.000000" height="19.000000" transform="translate(0.500000 0.500000)" fill="white" fill-opacity="0"/>
		</clipPath>
		<clipPath id="clip736_4301">
			<rect id="fi-rs-star" rx="-0.500000" width="19.000000" height="19.000000" transform="translate(25.500000 0.500000)" fill="white" fill-opacity="0"/>
		</clipPath>
		<clipPath id="clip736_4302">
			<rect id="fi-rs-star" rx="-0.500000" width="19.000000" height="19.000000" transform="translate(50.500000 0.500000)" fill="white" fill-opacity="0"/>
		</clipPath>
		<clipPath id="clip736_4303">
			<rect id="fi-rs-star" rx="-0.500000" width="19.000000" height="19.000000" transform="translate(75.500000 0.500000)" fill="white" fill-opacity="0"/>
		</clipPath>
		<clipPath id="clip736_4304">
			<rect id="fi-rs-star" rx="-0.500000" width="19.000000" height="19.000000" transform="translate(100.500000 0.500000)" fill="white" fill-opacity="0"/>
		</clipPath>
	</defs>
	<rect id="fi-rs-star" rx="-0.500000" width="19.000000" height="19.000000" transform="translate(0.500000 0.500000)" fill="#FFFFFF" fill-opacity="0"/>
	<g clip-path="url(#clip736_4300)">
		<path id="Vector" d="M16.22 19.42L10 14.85L3.77 19.42L6.16 12.04L-0.06 7.49L7.62 7.49L10 0.1L12.37 7.49L20.05 7.49L13.83 12.04L16.22 19.42ZM10 12.78L13.04 15.02L11.88 11.4L14.94 9.16L11.15 9.16L10 5.55L8.84 9.16L5.05 9.16L8.12 11.4L6.95 15.02L10 12.78Z" fill="#FFC700" fill-opacity="1.000000" fill-rule="nonzero"/>
	</g>
	<rect id="fi-rs-star" rx="-0.500000" width="19.000000" height="19.000000" transform="translate(25.500000 0.500000)" fill="#FFFFFF" fill-opacity="0"/>
	<g clip-path="url(#clip736_4301)">
		<path id="Vector" d="M41.22 19.42L35 14.85L28.77 19.42L31.16 12.04L24.94 7.49L32.62 7.49L35 0.1L37.37 7.49L45.05 7.49L38.83 12.04L41.22 19.42ZM35 12.78L38.04 15.02L36.88 11.4L39.94 9.16L36.15 9.16L35 5.55L33.84 9.16L30.05 9.16L33.12 11.4L31.95 15.02L35 12.78Z" fill="#FFC700" fill-opacity="1.000000" fill-rule="nonzero"/>
	</g>
	<rect id="fi-rs-star" rx="-0.500000" width="19.000000" height="19.000000" transform="translate(50.500000 0.500000)" fill="#FFFFFF" fill-opacity="0"/>
	<g clip-path="url(#clip736_4302)">
		<path id="Vector" d="M66.22 19.42L60 14.85L53.77 19.42L56.16 12.04L49.94 7.49L57.62 7.49L60 0.1L62.37 7.49L70.05 7.49L63.83 12.04L66.22 19.42ZM60 12.78L63.04 15.02L61.88 11.4L64.94 9.16L61.15 9.16L60 5.55L58.84 9.16L55.05 9.16L58.12 11.4L56.95 15.02L60 12.78Z" fill="#FFC700" fill-opacity="1.000000" fill-rule="nonzero"/>
	</g>
	<rect id="fi-rs-star" rx="-0.500000" width="19.000000" height="19.000000" transform="translate(75.500000 0.500000)" fill="#FFFFFF" fill-opacity="0"/>
	<g clip-path="url(#clip736_4303)">
		<path id="Vector" d="M91.22 19.42L85 14.85L78.77 19.42L81.16 12.04L74.94 7.49L82.62 7.49L85 0.1L87.37 7.49L95.05 7.49L88.83 12.04L91.22 19.42ZM85 12.78L88.04 15.02L86.88 11.4L89.94 9.16L86.15 9.16L85 5.55L83.84 9.16L80.05 9.16L83.12 11.4L81.95 15.02L85 12.78Z" fill="#FFC700" fill-opacity="1.000000" fill-rule="nonzero"/>
	</g>
	<rect id="fi-rs-star" rx="-0.500000" width="19.000000" height="19.000000" transform="translate(100.500000 0.500000)" fill="#FFFFFF" fill-opacity="0"/>
	<g clip-path="url(#clip736_4304)">
		<path id="Vector" d="M116.22 19.42L110 14.85L103.77 19.42L106.16 12.04L99.94 7.49L107.62 7.49L110 0.1L112.37 7.49L120.05 7.49L113.83 12.04L116.22 19.42ZM110 12.78L113.04 15.02L111.88 11.4L114.94 9.16L111.15 9.16L110 5.55L108.84 9.16L105.05 9.16L108.12 11.4L106.95 15.02L110 12.78Z" fill="#FFC700" fill-opacity="1.000000" fill-rule="nonzero"/>
	</g>
	<path id="(121)" d="M125.85 18.45C124.47 16.43 123.69 14.04 123.69 11.18C123.69 8.31 124.47 5.93 125.85 3.91L127.04 3.91C125.94 5.41 125.08 8.47 125.08 11.18C125.08 13.88 125.94 16.95 127.04 18.45L125.85 18.45ZM154.27 3.91C155.65 5.93 156.42 8.31 156.42 11.18C156.42 14.04 155.65 16.43 154.27 18.45L153.08 18.45C154.17 16.95 155.03 13.88 155.03 11.18C155.03 8.47 154.17 5.41 153.08 3.91L154.27 3.91ZM143.77 17L136.42 17L136.42 15.97L140.27 11.77C141.61 10.3 142.24 9.5 142.24 8.43C142.24 7.2 141.28 6.43 140.02 6.43C138.67 6.43 137.81 7.31 137.81 8.63L136.47 8.63C136.47 6.58 138.02 5.2 140.06 5.2C142.11 5.2 143.56 6.63 143.56 8.43C143.56 9.72 142.97 10.72 140.97 12.86L138.36 15.66L138.36 15.75L143.77 15.75L143.77 17ZM131.67 5.36L133.08 5.36L133.08 17L131.67 17L131.67 6.83L131.6 6.83L128.76 8.72L128.76 7.29L131.67 5.36ZM148.79 5.36L150.2 5.36L150.2 17L148.79 17L148.79 6.83L148.72 6.83L145.88 8.72L145.88 7.29L148.79 5.36Z" fill="#454444" fill-opacity="1.000000" fill-rule="evenodd"/>
</svg>
